PathFileType	4	(X/Y/Z)	C:/Users/opensim2020/Desktop/walking_exp_matlab/subject01_walking10_straight_01.trc																																																																																																																															
DataRate	CameraRate	NumFrames	NumMarkers	Units	OrigDataRate	OrigDataStartFrame	OrigNumFrames																																																																																																																											
100	100	5	43	mm	100	1052	349																																																																																																																											
Frame#	Time	LFHD			RFHD			LBHD			RBHD			C7			T10			CLAV			STRN			RBAK			LSHO			LUPA			LELB			LFRM			LWRA			LWRB			LFIN			RSHO			RUPA			RELB			RFRM			RWRA			RWRB			RFIN			LASI			RASI			LPSI			RPSI			LTHI			LKNE			LTIB			LANK			LHEE			LTOE			RTHI			RKNE			RTIB			RANK			RHEE			RTOE			*39			*40			*41			*42		
		X1	Y1	Z1	X2	Y2	Z2	X3	Y3	Z3	X4	Y4	Z4	X5	Y5	Z5	X6	Y6	Z6	X7	Y7	Z7	X8	Y8	Z8	X9	Y9	Z9	X10	Y10	Z10	X11	Y11	Z11	X12	Y12	Z12	X13	Y13	Z13	X14	Y14	Z14	X15	Y15	Z15	X16	Y16	Z16	X17	Y17	Z17	X18	Y18	Z18	X19	Y19	Z19	X20	Y20	Z20	X21	Y21	Z21	X22	Y22	Z22	X23	Y23	Z23	X24	Y24	Z24	X25	Y25	Z25	X26	Y26	Z26	X27	Y27	Z27	X28	Y28	Z28	X29	Y29	Z29	X30	Y30	Z30	X31	Y31	Z31	X32	Y32	Z32	X33	Y33	Z33	X34	Y34	Z34	X35	Y35	Z35	X36	Y36	Z36	X37	Y37	Z37	X38	Y38	Z38	X39	Y39	Z39	X40	Y40	Z40	X41	Y41	Z41	X42	Y42	Z42	X43	Y43	Z43
																																																																																																																																		
131	1.3	-316.7251	1680.50513	1429.02783	-287.3183	1688.85229	1538.4884	-425.18564	1624.07349	1454.60083	-396.43716	1631.51575	1571.17725	-439.71259	1435.53625	1486.97046	-469.20078	1141.64868	1491.49207	-296.17523	1369.93689	1485.00256	-250.99808	1214.28442	1478.67529	-490.30365	1239.40955	1562.07141	-355.9397	1401.11328	1325.09216	-387.41364	1216.38184	1240.99414	-403.17789	1066.59766	1242.75281	-368.24997	958.69452	1218.20288	-293.94238	841.33813	1234.3678	-349.61823	837.59943	1212.70862	-302.76511	766.97949	1201.50146	-357.44907	1394.62915	1637.66309	-398.43744	1188.56091	1737.0022	-381.54193	1064.56873	1739.07312	-332.3067	953.52185	1766.35791	-231.5325	854.2312	1743.78125	-273.97452	846.99182	1783.55115	-224.14679	776.95764	1780.10815	-295.93478	940.51563	1378.90747	-295.46481	931.08551	1595.90173	-481.97235	949.08685	1428.46228	-480.42047	949.07416	1573.95447	-243.57436	627.60339	1301.17017	-222.28221	494.15543	1313.66211	-307.37247	326.93411	1306.88965	-375.10684	117.25953	1355.22644	-415.81293	91.90822	1415.09802	-246.92407	54.77876	1329.20056	-360.47894	599.31903	1631.34033	-366.47424	441.32904	1597.09436	-426.12048	274.57907	1596.18445	-458.02679	73.79578	1534.49622	-508.56058	39.66436	1483.69409	-318.04916	34.02299	1533.04285	-305.72293	1721.0144	1518.61169	1973.06372	1023.52972	-3101.92065	2012.6073	1022.09058	-3140.69556	NaN	NaN	NaN
132	1.31	-309.89395	1680.06812	1428.69873	-280.36456	1688.505	1538.10706	-418.64014	1624.24182	1454.42639	-389.78314	1631.81482	1570.99011	-433.76892	1435.52588	1487.2865	-463.9364	1141.68396	1491.72241	-290.4418	1369.61267	1485.01929	-245.60695	1213.88647	1478.6571	-484.77206	1239.53699	1562.51501	-350.52319	1400.94702	1325.22473	-382.89822	1216.3241	1241.25061	-398.92368	1066.72791	1243.02637	-364.80344	958.49908	1218.2417	-290.80182	840.84088	1233.76599	-346.61716	837.37042	1212.58545	-300.03928	766.62598	1201.13477	-351.32495	1394.42407	1637.75134	-392.15961	1188.51672	1737.4657	-375.4169	1064.42249	1739.55798	-325.13519	953.69934	1766.67871	-223.6472	855.28253	1743.65527	-265.97226	847.51709	1783.46338	-215.43541	778.04633	1779.92212	-291.02499	940.646	1379.30774	-290.85339	930.72162	1596.06287	-477.05231	948.90149	1428.33252	-475.9874	948.89581	1573.78027	-238.09302	627.88794	1301.25037	-216.1356	494.37564	1314.21924	-295.16296	324.07541	1306.63477	-353.54898	111.58031	1354.03247	-394.49533	84.59751	1413.44678	-222.83586	53.85332	1329.42859	-357.43402	599.20422	1631.30212	-364.59201	441.09201	1596.96252	-425.07202	274.76654	1596.10278	-457.85785	73.97286	1534.42468	-508.44855	39.91265	1483.69995	-317.91922	34.06432	1533.16968	-298.64267	1720.69373	1518.09229	1973.32007	1023.41644	-3101.92065	2012.56189	1022.05255	-3140.73291	NaN	NaN	NaN
133	1.32	-303.10822	1679.54395	1428.2406	-273.46072	1688.07739	1537.6825	-412.10675	1624.33923	1454.26636	-383.09064	1631.99207	1570.76038	-427.89096	1435.5011	1487.58093	-458.76425	1141.69275	1491.84888	-284.69144	1369.26892	1485.00647	-240.22951	1213.41003	1478.63501	-479.22751	1239.68115	1562.91406	-345.08914	1400.74695	1325.32483	-378.30054	1216.13757	1241.41589	-394.83624	1066.55396	1243.16553	-361.16586	958.32227	1218.21008	-287.53766	840.4032	1233.49585	-343.44998	837.16156	1212.45142	-297.03354	766.54761	1200.59924	-345.08658	1394.1842	1637.88904	-385.74277	1188.45154	1737.89722	-369.23541	1064.26086	1740.00793	-318.14365	953.75787	1766.83813	-215.89064	856.26959	1743.41467	-257.95767	848.18799	1783.39856	-206.87354	779.07379	1779.6499	-285.88467	940.64081	1379.3147	-286.21475	930.41803	1596.26038	-472.07571	948.70233	1428.13623	-471.22745	948.54236	1573.42407	-232.79774	627.86426	1301.37048	-210.2765	494.3248	1314.76099	-282.76608	321.37454	1306.23743	-332.26501	106.46932	1353.00012	-372.89505	77.93388	1411.95874	-199.42467	53.70282	1329.53845	-354.31656	599.00916	1631.17847	-362.62027	440.90472	1596.88611	-423.99985	274.9801	1596.17395	-457.70529	74.22478	1534.39026	-507.75021	39.73268	1483.55286	-317.94843	33.81916	1533.07996	-291.64447	1720.20349	1517.47668	1973.05225	1023.37335	-3102.01318	2012.55591	1022.00226	-3140.70361	NaN	NaN	NaN
134	1.33	-296.3158	1679.01147	1427.81152	-266.54581	1687.59644	1537.16052	-405.52628	1624.31653	1454.01331	-376.43036	1632.08313	1570.48425	-421.90234	1435.38831	1487.74719	-453.5899	1141.73938	1491.93494	-278.95377	1368.82983	1484.87866	-234.85654	1212.92529	1478.57825	-473.69058	1239.79773	1563.29993	-339.62534	1400.48267	1325.2865	-373.72919	1215.98804	1241.48962	-390.54205	1066.47754	1243.26733	-357.38235	958.12207	1218.13025	-283.95325	840.05731	1233.20325	-340.07782	836.90643	1212.26428	-293.75909	766.27386	1200.22827	-338.87985	1393.89148	1637.82544	-379.3284	1188.38562	1738.25	-363.02667	1064.09155	1740.45679	-311.13715	953.84729	1767.01331	-208.2023	857.203	1743.11707	-250.08282	848.66315	1783.22168	-198.37415	780.15149	1779.31775	-280.7995	940.61945	1379.51978	-281.52582	930.11285	1596.37585	-467.10831	948.48724	1427.82202	-466.43811	948.29364	1573.04053	-227.66609	627.64856	1301.4198	-204.57646	494.08621	1315.34143	-270.40643	318.62628	1305.76892	-311.52991	101.55364	1351.92676	-351.24777	71.77851	1410.64551	-176.27214	54.01377	1329.51294	-351.2775	598.80817	1631.07483	-360.47241	440.69351	1596.92859	-422.86316	275.17297	1596.08972	-457.60233	74.5144	1534.29236	-507.59061	40.05717	1483.47388	-317.9379	33.67388	1533.05115	-284.61325	1719.78625	1516.94531	1973.1272	1023.38116	-3102.07446	2012.61304	1022.07373	-3140.67603	NaN	NaN	NaN
135	1.34	-289.68427	1678.34692	1427.20801	-259.66443	1687.07361	1536.55225	-398.86014	1624.08606	1453.76721	-369.70392	1632.06335	1570.12427	-416.0314	1435.26892	1487.88318	-448.28644	1141.60303	1491.81702	-273.21176	1368.32813	1484.62244	-229.42172	1212.37939	1478.46936	-468.16266	1239.85608	1563.5957	-334.09586	1400.18091	1325.21045	-369.02142	1215.81421	1241.52588	-386.21146	1066.38867	1243.34302	-353.4238	957.909	1218.01526	-280.37103	839.51416	1232.97693	-336.5228	836.64099	1212.00647	-290.56659	765.58813	1199.87292	-332.69092	1393.53406	1637.63574	-372.90414	1188.28064	1738.56604	-356.83533	1063.87842	1740.74329	-304.18701	953.86456	1767.02307	-200.66922	858.01007	1742.65076	-242.38503	849.06726	1782.83789	-190.01704	781.06696	1778.81006	-275.51053	940.48737	1379.57434	-276.8598	929.80402	1596.47253	-462.01242	948.26129	1427.4259	-461.62244	948.27948	1572.66711	-222.76164	627.22711	1301.45496	-199.08582	493.72156	1315.78638	-258.07281	316.10553	1305.14221	-290.73883	97.1797	1350.96326	-329.8519	66.04498	1409.47009	-153.60007	55.05617	1329.13086	-351.992	597.64734	1629.90552	-358.06265	440.64069	1596.97119	-421.5661	275.23941	1595.99048	-457.44327	74.74879	1534.26611	-507.76047	40.68624	1483.39087	-317.88739	33.66553	1533.07788	-277.58844	1719.30603	1516.33313	1972.84509	1024.00159	-3102.32202	2012.56604	1022.06018	-3140.70508	NaN	NaN	NaN
